<?xml version="1.0" encoding="utf-8"?>
<!-- Generator: Adobe Illustrator 18.1.1, SVG Export Plug-In . SVG Version: 6.00 Build 0)  -->
<svg version="1.1" id="Layer_1" xmlns="http://www.w3.org/2000/svg" xmlns:xlink="http://www.w3.org/1999/xlink" x="0px" y="0px"
	 viewBox="0 0 1400 300" enable-background="new 0 0 1400 300" xml:space="preserve">
<g>
	<g>
		<path fill="#FFFFFF" d="M473.6,195.8c0,9.7-3.7,17.2-11.1,22.4c-7.4,5.2-17.8,7.8-31.4,7.8c-14.5,0-26-2.2-34.5-6.7v-10.7
			c10.9,5.4,22.4,8.2,34.5,8.2c10.7,0,18.8-1.8,24.4-5.3c5.5-3.6,8.3-8.3,8.3-14.2c0-5.4-2.2-10-6.6-13.8c-4.4-3.7-11.7-7.4-21.8-11
			c-10.8-3.9-18.4-7.3-22.8-10.1c-4.4-2.8-7.7-6-9.9-9.6c-2.2-3.6-3.3-7.9-3.3-13c0-8.1,3.4-14.5,10.2-19.2
			c6.8-4.7,16.3-7.1,28.5-7.1c11.7,0,22.8,2.2,33.3,6.6l-3.7,9c-10.6-4.4-20.5-6.6-29.6-6.6c-8.8,0-15.8,1.5-21,4.4
			c-5.2,2.9-7.8,7-7.8,12.2c0,5.6,2,10.2,6,13.6c4,3.4,11.9,7.2,23.6,11.4c9.8,3.5,16.9,6.7,21.3,9.5c4.4,2.8,7.8,6,10,9.6
			C472.4,186.7,473.6,190.9,473.6,195.8z"/>
		<path fill="#FFFFFF" d="M542.7,226c-15.5,0-27.6-4.9-36.4-14.6s-13.2-23.4-13.2-40.9c0-17.9,4.5-31.9,13.7-41.9
			c9.1-10,21.6-15,37.4-15c9.4,0,18.3,1.6,26.9,4.9l-2.7,8.8c-9.4-3.1-17.5-4.7-24.4-4.7c-13.3,0-23.4,4.1-30.2,12.3
			c-6.8,8.2-10.3,20-10.3,35.4c0,14.6,3.4,26.1,10.3,34.3c6.8,8.3,16.4,12.4,28.7,12.4c9.8,0,19-1.8,27.4-5.3v9.2
			C563,224.3,553.9,226,542.7,226z"/>
		<path fill="#FFFFFF" d="M592.9,85.6c0-6.4,2.1-9.6,6.3-9.6c2.1,0,3.7,0.8,4.8,2.5c1.2,1.7,1.7,4,1.7,7.1c0,3-0.6,5.3-1.7,7.1
			c-1.2,1.7-2.8,2.6-4.8,2.6C595,95.2,592.9,92,592.9,85.6z M604.2,224h-9.9V115.7h9.9V224z"/>
		<path fill="#FFFFFF" d="M682.2,226c-15.7,0-28-4.8-36.8-14.5c-8.8-9.7-13.2-23.3-13.2-40.8c0-17.3,4.2-31.1,12.8-41.5
			c8.5-10.4,20-15.6,34.4-15.6c12.8,0,22.8,4.5,30.2,13.4c7.4,8.9,11.1,21,11.1,36.3v8h-78c0.1,14.9,3.6,26.2,10.4,34.1
			c6.8,7.8,16.6,11.8,29.2,11.8c6.2,0,11.6-0.4,16.3-1.3c4.7-0.9,10.6-2.7,17.8-5.6v9c-6.1,2.7-11.8,4.5-16.9,5.4
			C694.1,225.5,688.4,226,682.2,226z M679.3,122.3c-10.4,0-18.8,3.4-25.1,10.3c-6.3,6.9-10,16.8-11.1,29.7h67
			c0-12.6-2.7-22.4-8.2-29.4C696.5,125.9,688.9,122.3,679.3,122.3z"/>
		<path fill="#FFFFFF" d="M821.9,224v-70.3c0-10.9-2.3-18.8-6.9-23.8c-4.6-4.9-11.7-7.4-21.3-7.4c-13,0-22.4,3.3-28.4,9.8
			c-6,6.5-9,17.2-9,31.8V224h-9.9V115.7h8.4l1.9,14.8h0.6c7-11.3,19.6-16.9,37.6-16.9c24.6,0,36.9,13.2,36.9,39.6V224H821.9z"/>
		<path fill="#FFFFFF" d="M902.8,226c-15.5,0-27.6-4.9-36.4-14.6c-8.8-9.8-13.2-23.4-13.2-40.9c0-17.9,4.5-31.9,13.7-41.9
			c9.1-10,21.6-15,37.4-15c9.4,0,18.3,1.6,26.9,4.9l-2.7,8.8c-9.4-3.1-17.5-4.7-24.4-4.7c-13.3,0-23.4,4.1-30.2,12.3
			c-6.8,8.2-10.3,20-10.3,35.4c0,14.6,3.4,26.1,10.3,34.3c6.8,8.3,16.4,12.4,28.7,12.4c9.8,0,19-1.8,27.4-5.3v9.2
			C923.1,224.3,914.1,226,902.8,226z"/>
		<path fill="#FFFFFF" d="M998.2,226c-15.7,0-28-4.8-36.8-14.5c-8.8-9.7-13.2-23.3-13.2-40.8c0-17.3,4.2-31.1,12.8-41.5
			c8.5-10.4,20-15.6,34.4-15.6c12.8,0,22.8,4.5,30.2,13.4c7.4,8.9,11.1,21,11.1,36.3v8h-78c0.1,14.9,3.6,26.2,10.4,34.1
			c6.8,7.8,16.6,11.8,29.2,11.8c6.2,0,11.6-0.4,16.3-1.3c4.7-0.9,10.6-2.7,17.8-5.6v9c-6.1,2.7-11.8,4.5-16.9,5.4
			C1010.2,225.5,1004.5,226,998.2,226z M995.4,122.3c-10.4,0-18.8,3.4-25.1,10.3c-6.3,6.9-10,16.8-11.1,29.7h67
			c0-12.6-2.7-22.4-8.2-29.4C1012.5,125.9,1005,122.3,995.4,122.3z"/>
		<path fill="#ED5724" d="M1071.2,210c-10.8-10.7-16.1-24.4-16.1-41.2s5.4-30.5,16.1-41.2c10.8-10.7,24.4-16,41.1-16
			c16.5,0,30.1,5.4,40.9,16.1s16.2,24.4,16.2,41.1s-5.4,30.4-16.1,41.1c-10.8,10.8-24.4,16.1-41,16.1
			C1095.6,226,1082,220.7,1071.2,210z M1087.8,142.6c-6.1,6.9-9.2,15.6-9.2,26.2c0,10.6,3.1,19.3,9.3,26.2
			c6.2,6.9,14.3,10.3,24.4,10.3c10.1,0,18.2-3.4,24.3-10.3c6.1-6.9,9.2-15.6,9.2-26.2c0-10.6-3.1-19.3-9.2-26.2
			c-6.1-6.9-14.3-10.3-24.4-10.3C1102.1,132.3,1094,135.7,1087.8,142.6z"/>
		<path fill="#ED5724" d="M1191.3,224V113.4h51.5c11.5,0,20.6,3.4,27.1,10.2c6.5,6.8,9.8,15.3,9.8,25.4c0,10-3.3,18.5-9.9,25.3
			c-6.6,6.8-15.6,10.2-27,10.2h-28V224H1191.3z M1214.8,163.8h24.9c4.7,0,8.7-1.4,11.8-4.1c3.1-2.7,4.7-6.3,4.7-10.7
			c0-4.5-1.6-8.1-4.7-10.8c-3.1-2.7-7-4-11.8-4h-24.9V163.8z"/>
		<path fill="#ED5724" d="M1293.7,208.5l13-18.4c9.6,10.1,21.2,15.2,34.9,15.2c6.2,0,10.9-1.2,14.2-3.6c3.3-2.4,4.9-5.3,4.9-8.8
			c0-3-1.5-5.5-4.4-7.4c-2.9-2-6.7-3.5-11.4-4.6c-4.6-1.1-9.8-2.4-15.3-3.7c-5.6-1.4-10.7-3.1-15.4-5.2c-4.7-2.1-8.6-5.4-11.8-10
			c-3.2-4.5-4.7-10.1-4.7-16.7c0-9.5,3.8-17.4,11.3-23.8c7.5-6.4,17.5-9.6,30-9.6c17.4,0,31.7,5.1,42.8,15.3l-12.9,17.6
			c-8.7-8.1-19.4-12.2-32.1-12.1c-4.8,0-8.7,1-11.4,2.9c-2.8,2-4.2,4.6-4.2,7.9c0,2.6,1.7,4.8,5.1,6.5c3.4,1.7,7.4,3.2,12.1,4.4
			c4.7,1.2,9.7,2.5,15.3,3.9c5.5,1.4,10.5,3.2,15,5.4c4.5,2.2,8.2,5.6,11.2,10.2c3,4.6,4.5,10.2,4.5,16.8c0,10.6-3.7,19.2-11.2,25.7
			c-7.5,6.5-18.3,9.8-32.5,9.8C1320.9,226,1305.3,220.1,1293.7,208.5z"/>
	</g>
	<g>
		<polygon fill="#F9B630" points="158.5,26.4 87.1,150.1 15.8,273.6 158.5,273.6 		"/>
		<polygon fill="#E0E0E0" points="301.4,273.5 158.6,273.6 15.9,273.6 158.6,191.3 158.6,191.3 230,150.1 		"/>
		<polygon fill="#ED5724" points="230.1,150.1 158.6,191.3 158.6,191.3 87.2,150.1 158.6,26.4 		"/>
		<polygon fill="#EAEAEA" points="158.6,191.3 158.5,191.4 158.5,273.6 301.4,273.6 		"/>
		<polygon fill="#CE5230" points="301.5,273.6 158.7,191.3 158.7,150.1 230.1,150.1 		"/>
		<polygon fill="#ED5724" points="158.5,191.3 158.5,191.4 158.6,191.3 		"/>
		<polygon fill="#F18738" points="158.5,26.4 87.1,150.1 158.5,191.3 		"/>
		<polygon fill="#E2843B" points="87.1,150.1 158.5,150.1 158.5,191.3 		"/>
	</g>
</g>
</svg>
